<svg width="14" height="14" viewBox="0 0 14 14" fill="none" xmlns="http://www.w3.org/2000/svg">
<path fill-rule="evenodd" clip-rule="evenodd" d="M4.5 1C4.5 0.723858 4.72386 0.5 5 0.5H9C10.933 0.5 12.5 2.067 12.5 4V9C12.5 9.27614 12.2761 9.5 12 9.5C11.7239 9.5 11.5 9.27614 11.5 9V4C11.5 2.61929 10.3807 1.5 9 1.5H5C4.72386 1.5 4.5 1.27614 4.5 1Z" fill="white"/>
<path fill-rule="evenodd" clip-rule="evenodd" d="M8 4H4C3.44772 4 3 4.44772 3 5V11C3 11.5523 3.44772 12 4 12H8C8.55228 12 9 11.5523 9 11V5C9 4.44772 8.55228 4 8 4ZM4 3C2.89543 3 2 3.89543 2 5V11C2 12.1046 2.89543 13 4 13H8C9.10457 13 10 12.1046 10 11V5C10 3.89543 9.10457 3 8 3H4Z" fill="white"/>
</svg>
