<svg width="15" height="13" viewBox="0 0 15 13" fill="none" xmlns="http://www.w3.org/2000/svg">
<path d="M11.3977 0.652344H3.60118C3.42143 0.657283 3.24538 0.704469 3.08723 0.790087C2.92909 0.875705 2.79332 0.997354 2.69087 1.1452L0.741743 3.8452C0.597011 4.04981 0.52473 4.29693 0.536371 4.54732C0.548012 4.79772 0.642909 5.03705 0.805999 5.22734L6.65339 11.9666C6.7535 12.0957 6.88177 12.2002 7.02841 12.2719C7.17505 12.3438 7.33617 12.3811 7.49944 12.3811C7.66272 12.3811 7.82384 12.3438 7.97047 12.2719C8.11711 12.2002 8.24538 12.0957 8.34549 11.9666L14.1929 5.22734C14.3559 5.03705 14.4509 4.79772 14.4625 4.54732C14.4741 4.29693 14.4019 4.04981 14.2572 3.8452L12.308 1.1452C12.2056 0.997354 12.0698 0.875705 11.9117 0.790087C11.7535 0.704469 11.5774 0.657283 11.3977 0.652344Z" stroke="#402D5E" stroke-linecap="round" stroke-linejoin="round"/>
<path d="M6.94241 0.640625L4.32812 4.69062L7.49955 12.3513" stroke="#402D5E" stroke-linecap="round" stroke-linejoin="round"/>
<path d="M8.08929 0.640625L10.6929 4.69062L7.5 12.3513" stroke="#402D5E" stroke-linecap="round" stroke-linejoin="round"/>
<path d="M0.556641 4.69141H14.4423" stroke="#402D5E" stroke-linecap="round" stroke-linejoin="round"/>
</svg>
