<svg width="12" height="12" viewBox="0 0 12 12" fill="none" xmlns="http://www.w3.org/2000/svg">
<g clip-path="url(#clip0_2807_24160)">
<path d="M9.11974 1.32031H2.8825C2.73871 1.32426 2.59786 1.36201 2.47135 1.43051C2.34484 1.499 2.23622 1.59632 2.15426 1.7146L0.594957 3.8746C0.479171 4.03829 0.421347 4.23598 0.430659 4.43629C0.439972 4.63662 0.515889 4.82808 0.646362 4.98031L5.32427 10.3717C5.40436 10.475 5.50698 10.5586 5.62429 10.616C5.7416 10.6735 5.8705 10.7033 6.00112 10.7033C6.13174 10.7033 6.26063 10.6735 6.37794 10.616C6.49525 10.5586 6.59787 10.475 6.67796 10.3717L11.3559 4.98031C11.4863 4.82808 11.5623 4.63662 11.5716 4.43629C11.5809 4.23598 11.5231 4.03829 11.4073 3.8746L9.84797 1.7146C9.76603 1.59632 9.65743 1.499 9.53092 1.43051C9.4044 1.36201 9.26349 1.32426 9.11974 1.32031Z" stroke="white" stroke-linecap="round" stroke-linejoin="round"/>
<path fill-rule="evenodd" clip-rule="evenodd" d="M6.22189 0.924921C6.43631 0.787082 6.72187 0.84916 6.85971 1.06358L8.80613 4.09135H11.5545C11.8094 4.09135 12.016 4.29798 12.016 4.55288C12.016 4.80779 11.8094 5.01442 11.5545 5.01442H8.8621L6.42793 10.8548C6.42074 10.8725 6.41245 10.8899 6.40311 10.9066C6.38643 10.9366 6.36675 10.9641 6.34461 10.989C6.29976 11.0393 6.24311 11.0806 6.17661 11.1081C6.11864 11.1321 6.05857 11.1435 5.99951 11.1434C5.94044 11.1433 5.88041 11.1319 5.82249 11.1077C5.75566 11.0799 5.69884 11.0381 5.65398 10.9872C5.63247 10.9629 5.61331 10.9359 5.59701 10.9066C5.58748 10.8895 5.57904 10.8718 5.57175 10.8537L3.15436 5.01442H0.445913C0.191013 5.01442 -0.015625 4.80779 -0.015625 4.55288C-0.015625 4.29798 0.191013 4.09135 0.445913 4.09135H3.21169L5.16659 1.06285C5.30483 0.848692 5.59051 0.787147 5.80466 0.925387C5.92544 1.00335 5.99768 1.1282 6.01292 1.26067C6.02819 1.12791 6.10071 1.00282 6.22189 0.924921ZM4.15341 5.01442L6.00149 9.47852L7.86206 5.01442H4.15341ZM7.70877 4.09135H4.31037L5.94213 1.56346C5.98183 1.50195 6.00505 1.43455 6.01292 1.36643C6.02075 1.43427 6.04382 1.50141 6.08324 1.56274L7.70877 4.09135Z" fill="white"/>
</g>
<defs>
<clipPath id="clip0_2807_24160">
<rect width="12" height="12" fill="white"/>
</clipPath>
</defs>
</svg>
